<svg width="108" height="44" viewBox="0 0 108 44" fill="none" xmlns="http://www.w3.org/2000/svg">
<path fill-rule="evenodd" clip-rule="evenodd" d="M91.1245 29.571H87.3421V14.5831H91.1245V29.571ZM104.006 15.6625C104.718 16.1111 105.331 16.6996 105.809 17.3923H105.808C106.712 18.6663 107.165 20.2091 107.165 22.0206C107.165 24.2981 106.528 26.1265 105.252 27.5042C103.976 28.8826 102.286 29.571 100.18 29.571H94.3507V14.584H99.3338C101.306 14.584 102.864 14.9429 104.006 15.6625ZM98.1331 26.1779H99.7567C102.175 26.1779 103.384 24.8298 103.384 22.1335C103.384 20.8073 103.072 19.7827 102.449 19.0606C101.825 18.3385 100.936 17.9762 99.7795 17.9762H98.1331V26.1779ZM4.44617 5.21024L16.7032 2L20.928 6.33594L25.2201 2.06993L37.4257 5.47987L40.6048 17.8608L36.3119 22.1268L40.5357 26.4627L37.1586 38.7897L24.9016 42L20.6769 37.6632L16.3831 41.93L4.17907 38.5201L1 26.14L5.29296 21.874L1.06825 17.5364L4.44617 5.21024ZM15.6382 5.88937L9.18149 7.58128L14.344 12.8794L18.4617 8.78786L15.6382 5.88937ZM26.2244 5.97615L23.3554 8.82661L27.4066 12.9856L32.6534 7.77254L26.2244 5.97615ZM4.93673 16.5238L4.93655 16.5245V16.5236L4.93673 16.5238ZM4.93673 16.5238L7.75921 19.4221L11.8761 15.3305L6.71525 10.0324L4.93673 16.5238ZM35.0792 10.2624L29.8324 15.4771L33.8844 19.6353L36.7525 16.784L35.0792 10.2624ZM20.8884 11.2785L16.7706 15.3701L20.8218 19.5291L24.9387 15.4375L20.8884 11.2785ZM14.3036 17.8212L10.1867 21.9128L14.2378 26.0718L18.3564 21.9802L14.3036 17.8212ZM27.3661 17.9282L23.2493 22.0198L27.2996 26.1788L31.4173 22.0872L27.3661 17.9282ZM7.72045 24.3639L4.85061 27.216L6.52567 33.7359L11.7708 28.5237L7.72045 24.3639ZM20.7822 24.4709L16.6645 28.5625L20.7165 32.7214L24.8333 28.6299L20.7822 24.4709ZM33.8439 24.5787L29.7262 28.6703L34.8896 33.9685L36.6674 27.4764L33.8439 24.5787ZM8.95212 36.2276L8.95147 36.2283V36.2274L8.95212 36.2276ZM8.95212 36.2276L15.3804 38.0247L18.2502 35.1725L14.1974 31.0135L8.95212 36.2276ZM27.26 31.1205L23.1431 35.2121L25.9658 38.1106L32.4216 36.4195L27.26 31.1205ZM52.2584 14.584C54.4087 14.584 55.9287 14.9581 56.8193 15.7071C57.9762 16.6812 58.555 18.0074 58.555 19.685C58.555 21.3027 58.0335 22.5986 56.9971 23.5718C56.077 24.4405 54.6311 24.8745 52.6595 24.8745H51.035V29.5719H47.4085V14.584H52.2584ZM51.035 21.483H52.5693V21.4822C54.1416 21.4822 54.9286 20.9008 54.9286 19.7397C54.9286 18.5635 54.0902 17.9754 52.4135 17.9754H51.035V21.483ZM60.9792 14.5831H64.7607V26.1788H69.1438V29.571H60.9792V14.5831ZM70.6124 29.571L76.5526 14.5831H79.5548L85.4528 29.571H81.336L80.624 27.3921H75.4623L74.6838 29.571H70.6124ZM78.0659 19.235L76.508 24.3579H79.5994L78.0659 19.235Z" fill="#6E6E81"/>
</svg>
