<svg width="120" height="44" viewBox="0 0 120 44" fill="none" xmlns="http://www.w3.org/2000/svg">
<path fill-rule="evenodd" clip-rule="evenodd" d="M32.1006 21.5752C32.2985 23.5082 32.3843 25.4544 32.3579 27.4006L32.3513 27.4072V27.4072C32.3513 27.6183 32.3513 27.8426 32.3249 28.0603C32.3249 30.1187 32.3051 32.2167 31.8499 34.2354C31.3948 36.2427 28.9784 36.212 27.3555 36.1913C27.2608 36.1901 27.1688 36.189 27.08 36.1882C25.4989 36.1712 23.9266 35.9703 22.3549 35.7694C20.8903 35.5823 19.4261 35.3952 17.9559 35.357C16.3071 35.3117 14.6622 35.5308 13.0269 35.7485C12.516 35.8166 12.006 35.8845 11.4971 35.9441C10.913 36.0137 10.3139 36.1203 9.70888 36.228C8.30487 36.4779 6.86882 36.7335 5.51333 36.5445C3.13169 36.2014 2.45217 33.1271 2.24765 31.0621C1.92438 27.7239 1.72646 25.0519 2.91398 20.8956C3.30982 19.5168 3.92337 18.4876 4.76123 17.3529L4.14108 16.7063C3.72455 16.2918 3.39485 15.7984 3.17127 15.2549C2.34661 13.0712 4.22025 11.1118 5.84979 10.109C9.06339 8.21057 12.701 7.14662 16.4311 7.0141C20.1612 6.88158 23.8651 7.68472 27.2054 9.35029C29.0064 10.2937 30.8207 11.7187 31.586 13.7243C32.1666 15.2549 32.2919 17.3727 30.6492 18.2303C30.4748 18.288 30.2878 18.2961 30.1093 18.2536C31.5164 18.6045 31.9559 20.2733 32.1006 21.5752ZM24.5037 32.2851C25.9998 32.4104 28.1208 32.588 28.8745 30.8906H28.8679C28.9833 30.6338 29.0653 30.3633 29.112 30.0857C29.5439 27.5646 29.6239 24.9957 29.3495 22.4526C29.178 20.8692 28.7755 18.6393 27.212 17.9004C29.7519 16.4424 27.0338 13.5198 25.6352 12.6688C21.1424 9.94405 14.4923 9.73294 9.73562 11.8573C8.37657 12.4576 5.88938 14.2191 6.88557 16.2973C7.0613 16.6619 7.32771 16.8803 7.60104 17.1043C7.73819 17.2167 7.87707 17.3306 8.00712 17.465C7.96754 17.4254 7.19565 18.2237 6.67446 19.5432C6.29181 20.4536 6.00153 21.4036 5.8234 22.38C5.53466 23.9565 5.37579 25.554 5.34839 27.1565C5.36819 28.9312 5.62548 31.0357 7.08349 32.2694C8.16865 33.191 9.74058 32.7784 11.0728 32.4288C11.3524 32.3554 11.6214 32.2848 11.8732 32.2298C13.8128 31.801 15.7854 31.425 17.7778 31.4843L24.4741 32.2826L24.5037 32.2851ZM38.5591 29.8283C38.5591 32.9554 40.3404 34.6312 43.6325 34.6312C46.7068 34.6312 47.4128 33.6548 47.4128 32.52C47.4128 31.3853 46.6673 30.5144 45.3346 30.5144H44.9256C44.1867 30.5144 43.296 29.9735 43.296 28.588V20.658H45.1433C45.6708 20.6427 46.172 20.4241 46.5421 20.0479C46.9122 19.6717 47.1225 19.1669 47.1291 18.6392C47.1225 18.1115 46.9122 17.6068 46.5421 17.2306C46.172 16.8543 45.6708 16.6357 45.1433 16.6205H43.296V13.8892C43.2037 12.6686 42.1679 11.7318 40.9276 11.7318C39.6873 11.7318 38.6581 12.6752 38.5591 13.8892V16.6205H37.4112C36.3029 16.627 35.399 17.4979 35.3726 18.5865C35.3594 19.1274 35.5705 19.6486 35.9532 20.0379C36.3358 20.4271 36.8636 20.6514 37.4112 20.658H38.5591V29.8283ZM49.0028 25.3883C49.0028 30.4088 52.5588 34.6311 58.4436 34.6311C59.687 34.7023 60.9316 34.5138 62.0982 34.0776C63.2648 33.6415 64.3278 32.9672 65.2196 32.0978C66.1113 31.2284 66.8123 30.1828 67.2779 29.0277C67.7435 27.8725 67.9635 26.6331 67.924 25.3883C67.924 20.4073 64.368 16.185 58.4436 16.185C52.5654 16.185 49.0028 20.4073 49.0028 25.3883ZM53.8914 25.3883C53.8914 22.657 55.5144 20.2951 58.4436 20.2951C61.3662 20.2951 63.0353 22.657 63.0353 25.3883C63.0353 28.1657 61.3662 30.5276 58.4436 30.5276C55.521 30.5276 53.8914 28.1196 53.8914 25.3883ZM84.1732 34.4134H84.5426L84.5294 34.4068C85.8093 34.4002 86.8319 33.371 86.8253 32.1175V22.8351C86.8253 17.7815 83.0846 16.1784 79.0141 16.1784C76.9425 16.1784 72.9445 16.9041 71.8362 18.6524C71.6728 18.9284 71.5842 19.2421 71.5789 19.5628C71.5789 20.5326 72.3706 21.3309 73.3602 21.3441C73.661 21.3316 73.9538 21.2431 74.2112 21.0868C75.4022 20.322 76.7941 19.9292 78.2092 19.9587C80.5776 19.9587 82.1346 21.1264 82.1346 22.9077V25.2761C80.9537 23.8973 78.8491 23.132 76.4741 23.132C73.624 23.132 70.2528 24.6955 70.2528 28.8057C70.2528 32.7377 73.624 34.6311 76.4741 34.6311C78.8095 34.6311 80.9141 33.7933 82.1346 32.3748C82.1346 34.1231 83.8037 34.4134 84.1732 34.4134ZM78.3609 26.2591C79.8783 26.2591 81.3561 26.7737 82.1346 27.7897V29.9734C81.3561 30.996 79.8783 31.504 78.3609 31.504C76.5071 31.504 74.9897 30.554 74.9897 28.9178C74.9897 27.1959 76.5071 26.2591 78.3609 26.2591ZM97.9482 34.6312C95.6194 34.6312 91.8787 33.8659 90.7703 32.2957C90.5526 32.012 90.4339 31.669 90.4405 31.3127C90.4541 30.8004 90.6659 30.3134 91.0314 29.9541C91.3968 29.5948 91.8874 29.3912 92.3999 29.3863C92.7429 29.3863 93.0728 29.4787 93.3631 29.6568C94.7683 30.4551 96.6222 31.0752 98.1725 31.0752C100.211 31.0752 101.174 30.2769 101.174 29.1818C101.174 28.037 99.529 27.7083 97.533 27.3096C94.4561 26.6949 90.546 25.9138 90.546 21.7202C90.546 18.7712 93.1784 16.1916 97.8757 16.1916C100.205 16.1916 103.391 16.9239 104.394 18.3358C104.586 18.5956 104.69 18.9099 104.691 19.233C104.658 20.2094 103.84 20.9879 102.843 20.9813C102.533 20.982 102.228 20.9073 101.953 20.7636C100.717 20.073 99.3246 19.7097 97.9086 19.708C96.2065 19.708 95.0982 20.4733 95.0982 21.4563C95.0982 22.4463 96.6111 22.7501 98.4932 23.128C101.59 23.7499 105.687 24.5725 105.687 28.9839C105.687 32.1902 102.909 34.6246 97.9482 34.6246V34.6312ZM115.158 34.6312C111.868 34.6302 110.087 32.9545 110.087 29.8283V20.658H108.939C108.392 20.6514 107.864 20.4271 107.481 20.0379C107.099 19.6486 106.888 19.1274 106.901 18.5865C106.927 17.4979 107.831 16.627 108.939 16.6205H110.087V13.8892C110.142 13.2989 110.415 12.7502 110.853 12.351C111.291 11.9518 111.863 11.731 112.456 11.7318C113.696 11.7318 114.732 12.6686 114.824 13.8892V16.6205H116.678C117.206 16.6357 117.707 16.8543 118.077 17.2306C118.447 17.6068 118.657 18.1115 118.664 18.6392C118.657 19.1669 118.447 19.6717 118.077 20.0479C117.707 20.4241 117.206 20.6427 116.678 20.658H114.824V28.588C114.824 29.9735 115.715 30.5144 116.454 30.5144H116.863C118.195 30.5144 118.934 31.3853 118.934 32.52C118.934 33.6543 118.236 34.6304 115.158 34.6312Z" fill="#6E6E81"/>
</svg>
