<svg width="96" height="44" viewBox="0 0 96 44" fill="none" xmlns="http://www.w3.org/2000/svg">
<path d="M63.8282 33.125C61.3282 35.875 57.8282 37.25 56.2032 37.25C54.3282 37.25 53.3282 36.125 53.0782 34.375C52.9532 33.75 53.0782 33 53.2032 32.375C53.8282 28.5 55.2032 26 55.2032 25.375C55.2032 25.125 55.0782 25 54.9532 25C53.7032 25 49.4532 29.375 48.8282 32.25L48.3282 34.625C47.9532 36.25 46.4532 37.25 45.3282 37.25C44.8282 37.25 44.4532 37 44.3282 36.375C44.3282 36.125 44.3282 35.875 44.3282 35.625L44.5782 34.375C42.3282 36.125 39.8282 37.25 38.7032 37.25C37.0782 37.25 36.2032 36.375 35.9532 35.125C34.9532 36.5 33.5782 37.25 32.0782 37.25C30.2032 37.25 28.4532 36 27.5782 34.125C26.3282 35.5 24.8282 36.875 23.0782 38C20.4532 39.625 17.5782 41 14.2032 41C11.0782 41 8.3282 39.375 6.9532 38C4.7032 36 3.57819 32.875 3.20319 30.125C2.07819 21.375 7.45319 9.75 15.8282 4.75C17.7032 3.625 19.8282 3 21.8282 3C25.8282 3 28.8282 5.875 29.2032 9.25C29.5782 12.375 28.3282 15 24.9532 16.625C23.2032 17.5 22.3282 17.5 22.0782 17C21.9532 16.75 21.9532 16.25 22.3282 16C25.5782 13.375 25.5782 11.125 25.2032 8C24.9532 6 23.7032 4.75 22.2032 4.75C15.7032 4.75 6.70319 18.875 7.95319 29.125C8.45319 33.125 10.9532 37.75 15.9532 37.75C17.5782 37.75 19.4532 37.25 20.9532 36.5C23.7032 35.125 25.3282 34 26.8282 32.125C26.4532 27.375 30.5782 21.375 36.5782 21.375C39.2032 21.375 41.3282 22.375 41.5782 24.5C41.9532 27.125 39.7032 27.625 38.8282 27.625C38.0782 27.625 36.9532 27.375 36.8282 26.75C36.7032 26 38.4532 26.375 38.2032 24.75C38.0782 23.75 36.9532 23.375 35.9532 23.375C32.2032 23.375 30.0782 28.625 30.4532 31.875C30.5782 33.375 31.4532 34.875 32.7032 34.875C33.8282 34.875 35.4532 33.25 35.9532 31C36.3282 29.375 37.8282 28.375 38.9532 28.375C39.5782 28.375 39.9532 28.625 39.9532 29.25C39.9532 29.5 39.9532 29.75 39.9532 30C39.8282 30.625 39.3282 33 39.3282 33.375C39.3282 33.75 39.5782 34.375 40.3282 34.375C40.9532 34.375 42.9532 33.25 44.9532 31.5C45.5782 28.375 46.3282 24.5 46.3282 24.25C46.5782 23 47.0782 21.625 49.5782 21.625C50.0782 21.625 50.4532 21.875 50.5782 22.5C50.5782 22.75 50.5782 23 50.5782 23.25L49.9532 26.625C52.2032 23.625 55.7032 21.375 57.8282 21.375C58.7032 21.375 59.4532 21.875 59.5782 22.75C59.7032 23.25 59.4532 24.125 59.2032 25.125C58.4532 27.125 57.5782 30.25 57.0782 32.875C56.9532 33.5 57.2032 34.25 58.2032 34.25C59.0782 34.25 61.7032 33.25 63.8282 30.375C63.8282 30 63.8282 29.625 63.8282 29.125C63.8282 26.875 63.9532 25.125 64.4532 23.75C64.8282 22.375 66.5782 21.125 67.7032 21.125C68.3282 21.125 68.7032 21.5 68.7032 22.125C68.7032 22.375 68.7032 22.625 68.5782 22.875C67.8282 25.25 67.3282 27.375 67.3282 29.5C67.3282 30.75 67.5782 32.625 67.8282 33.625C67.8282 33.875 67.9532 34 68.2032 34C68.5782 34 71.0782 31.625 72.8282 28.625C71.2032 27.625 70.3282 25.75 70.3282 23.5C70.3282 19.75 72.5782 17.75 74.8282 17.75C76.5782 17.75 78.0782 19 78.0782 21.5C78.0782 23.125 77.4532 24.875 76.5782 26.625C76.5782 26.625 76.9532 26.625 77.0782 26.625C78.4532 26.625 79.4532 26 80.0782 25.25C80.3282 25 80.5782 24.75 80.8282 24.625C82.5782 22.5 85.2032 21 88.2032 21C90.8282 21 92.9532 22 93.2032 24.125C93.5782 26.75 91.2032 27.375 90.4532 27.375C89.7032 27.375 88.4532 27.125 88.4532 26.5C88.3282 25.875 90.0782 26.125 89.9532 24.5C89.8282 23.5 88.7032 23 87.7032 23C84.2032 23 81.8282 27.625 82.2032 31.5C82.3282 33 83.0782 34.5 84.4532 34.5C85.5782 34.5 87.2032 32.875 87.8282 30.625C88.2032 29.125 89.7032 28 90.8282 28C91.3282 28 91.8282 28.25 91.8282 28.875C91.8282 29.25 91.7032 29.875 91.2032 32.375C90.9532 33.375 90.9532 34.375 90.9532 35C91.2032 36.5 91.8282 37.5 92.4532 38.125C92.7032 38.375 92.8282 38.625 92.8282 38.75C92.8282 39.125 92.5782 39.5 92.0782 39.5C91.9532 39.5 91.7032 39.5 91.5782 39.375C88.8282 38.25 87.7032 36.375 87.4532 34.75C86.4532 36.125 85.0782 36.75 83.5782 36.75C81.2032 36.75 78.8282 34.625 78.4532 31.875C78.3282 30.75 78.4532 29.5 78.8282 28.375C77.8282 29 76.8282 29.375 75.8282 29.375C75.4532 29.375 75.2032 29.375 74.9532 29.375C72.5782 32.75 70.0782 35.125 68.2032 36.25C67.4532 36.625 66.7032 36.875 66.2032 36.875C65.8282 36.875 65.3282 36.75 65.0782 36.375C64.3282 35.875 63.9532 34.625 63.8282 33.125ZM72.3282 21.875C72.3282 23.375 73.0782 24.875 73.9532 25.875C74.3282 24.875 74.5782 23.875 74.5782 22.875C74.5782 21 73.8282 20.125 73.3282 20.125C72.5782 20.125 72.3282 21.125 72.3282 21.875Z" fill="#6E6E81"/>
</svg>
