<svg width="172" height="44" viewBox="0 0 172 44" fill="none" xmlns="http://www.w3.org/2000/svg">
<path fill-rule="evenodd" clip-rule="evenodd" d="M86.6382 22.3901C86.458 27.5542 82.7359 31.4574 78.0233 31.4574C73.1008 31.4574 69.0785 27.1944 69.0785 21.9998C69.0785 16.7754 73.1008 12.5124 78.0233 12.5124C81.3553 12.5124 84.2071 14.404 85.6777 17.5864L85.7379 17.7368H89.4899L89.37 17.3763C87.5993 12.2725 83.1565 9 78.0239 9C71.1499 9 65.5669 14.8247 65.5669 21.97C65.5669 29.1153 71.1499 34.9399 78.0239 34.9399C79.5767 34.9452 81.1149 34.6398 82.5479 34.0417C83.981 33.4437 85.28 32.565 86.3685 31.4574C87.5403 30.2606 88.4622 28.8425 89.0807 27.2858C89.6991 25.7291 90.0017 24.0649 89.9708 22.3901H86.6382ZM119.296 15.5748C118.376 15.5642 117.462 15.7395 116.611 16.0903C115.76 16.441 114.989 16.9601 114.343 17.6162V16.0247H110.951V34.5491H114.464V23.2906C114.464 20.7085 116.324 18.8473 118.906 18.8473C121.097 18.8473 122.598 20.138 122.958 22.3V22.3602L126.44 22.3304V22.2403C125.96 18.1569 123.259 15.5748 119.296 15.5748ZM167.864 15.7252C167.832 15.6659 167.794 15.6097 167.752 15.5572C167.711 15.5086 167.663 15.4666 167.61 15.4326C167.906 15.3806 168.175 15.2283 168.372 15.0014C168.544 14.7832 168.634 14.5117 168.626 14.2337C168.637 14.0652 168.606 13.8965 168.538 13.7423C168.469 13.5881 168.363 13.4529 168.231 13.3485C167.864 13.1208 167.435 13.0156 167.005 13.0483H165.629V17.3266H166.377V15.6298H166.756C166.819 15.6258 166.883 15.6373 166.941 15.6632C166.982 15.6871 167.017 15.7199 167.044 15.7591L168.012 17.2072C168.036 17.2466 168.07 17.2787 168.11 17.2998C168.151 17.321 168.197 17.3305 168.242 17.3272H168.957L167.863 15.7263V15.7252H167.864ZM166.929 15.0821H166.377V13.6241H167.006C167.147 13.6211 167.288 13.6358 167.426 13.6668C167.525 13.689 167.619 13.7329 167.699 13.7961C167.769 13.854 167.821 13.9307 167.849 14.0167C167.881 14.1173 167.897 14.2226 167.895 14.3285C167.902 14.4318 167.886 14.5352 167.848 14.6317C167.811 14.7281 167.753 14.8154 167.679 14.8873C167.46 15.0399 167.194 15.1091 166.929 15.0821ZM21.0213 26.4732C19.5805 29.6556 16.6691 31.5472 13.2768 31.5472C8.41394 31.5472 4.48175 27.2842 4.48175 22.03C4.48175 16.7757 8.44377 12.5121 13.2768 12.5121C16.789 12.5121 19.6103 14.3733 21.0213 17.5861L21.0815 17.7365H24.7434L24.6235 17.3761C23.002 12.2716 18.6498 9.11967 13.2768 9.11967C6.49289 9.11967 1 14.8841 1 21.9995C1 29.115 6.49289 34.9098 13.2768 34.9098C18.5895 34.9098 22.9423 31.7275 24.6229 26.6236L24.7428 26.2632H21.1108L21.0213 26.4732ZM35.5192 31.6373C32.3375 31.6373 29.7561 28.8154 29.7561 25.3323C29.7561 21.7895 32.3375 18.9371 35.5192 18.9371C38.7009 18.9371 41.3724 21.8796 41.3724 25.3323C41.3426 28.7551 38.671 31.6373 35.5192 31.6373ZM41.4625 18.4269C40.7397 17.5468 39.8332 16.8354 38.8065 16.3427C37.7798 15.85 36.6579 15.5878 35.5192 15.5745C30.3264 15.5745 26.2439 19.8376 26.2439 25.3024C26.2439 30.7369 30.3264 34.9999 35.5192 34.9999C36.6606 34.9851 37.7848 34.7193 38.8119 34.2211C39.8391 33.723 40.744 33.0049 41.4625 32.1177V34.5494H44.8542V16.025H41.4625V18.4269ZM56.3506 15.5745C55.4302 15.5639 54.5171 15.7392 53.666 16.09C52.8149 16.4408 52.0434 16.9598 51.3977 17.6159V16.0245H48.006V34.5488H51.5182V23.2903C51.5182 20.7082 53.379 18.847 55.9605 18.847C58.1518 18.847 59.6528 20.1377 60.0126 22.2997V22.36L63.4943 22.3301V22.24C63.0146 18.1566 60.3132 15.5745 56.3506 15.5745ZM12.4965 19.2077H14.7779V25.9031H12.4965V19.2077ZM19.1907 20.2286C19.1907 20.9582 18.5993 21.5497 17.8698 21.5497C17.1403 21.5497 16.5489 20.9582 16.5489 20.2286C16.5489 19.4989 17.1403 18.9074 17.8698 18.9074C18.5993 18.9074 19.1907 19.4989 19.1907 20.2286ZM9.37476 21.5497C10.1043 21.5497 10.6956 20.9582 10.6956 20.2286C10.6956 19.4989 10.1043 18.9074 9.37476 18.9074C8.64526 18.9074 8.05389 19.4989 8.05389 20.2286C8.05389 20.9582 8.64526 21.5497 9.37476 21.5497ZM128.412 27.2241C128.412 31.6311 131.61 34.8298 136.016 34.8298C140.422 34.8298 143.62 31.6317 143.62 27.2235V16.2253H140.509V27.2235C140.509 29.9653 138.703 31.8078 136.016 31.8078C133.311 31.8078 131.493 29.9653 131.493 27.2235V16.2253H128.412V27.2241ZM92.5715 27.2241C92.5715 31.6311 95.7695 34.8298 100.175 34.8298C104.582 34.8298 107.78 31.6317 107.78 27.2235V16.2253H104.668V27.2235C104.668 29.9653 102.863 31.8078 100.175 31.8078C97.4706 31.8078 95.6525 29.9653 95.6525 27.2235V16.2253H92.5715V27.2241ZM150.244 20.7686C150.244 21.7592 150.904 22.2396 154.566 22.8101C158.829 23.4706 162.07 24.3413 162.042 28.5452C162.042 32.208 158.98 34.6701 154.417 34.6701C149.885 34.6701 146.643 32.1477 146.133 28.2749L146.103 27.9748H149.615L149.645 28.1848C150.005 30.1361 151.866 31.3672 154.418 31.3672C157.209 31.3672 158.65 30.0162 158.65 28.695C158.65 27.6143 158.319 26.7437 153.997 26.1732C149.524 25.5431 146.763 24.432 146.763 20.8593C146.763 18.1567 149.043 15.2447 154.087 15.2447C158.379 15.2447 161.29 17.4962 161.681 21.0992L161.71 21.3994H158.168L158.108 21.1893C157.748 19.5077 156.277 18.5172 154.056 18.5172C151.925 18.5172 150.244 19.5077 150.244 20.7686ZM76.7924 25.4822V22.39V22.3894H85.2576C85.2359 22.8738 85.1757 23.3554 85.0774 23.8305C84.9809 24.3495 84.8194 24.8538 84.5971 25.3319L84.507 25.4822H76.7924ZM79.2535 18.8771C79.2535 19.6397 78.6354 20.2579 77.873 20.2579C77.1105 20.2579 76.4924 19.6397 76.4924 18.8771C76.4924 18.1144 77.1105 17.4962 77.873 17.4962C78.6354 17.4962 79.2535 18.1144 79.2535 18.8771ZM83.1263 20.2579C83.8887 20.2579 84.5068 19.6397 84.5068 18.8771C84.5068 18.1144 83.8887 17.4962 83.1263 17.4962C82.3638 17.4962 81.7457 18.1144 81.7457 18.8771C81.7457 19.6397 82.3638 20.2579 83.1263 20.2579ZM165.156 18.1492C165.741 18.5407 166.43 18.7497 167.134 18.7498C168.079 18.749 168.984 18.3734 169.652 17.7055C170.32 17.0375 170.695 16.1317 170.696 15.1871C170.696 14.4826 170.487 13.794 170.096 13.2083C169.704 12.6226 169.148 12.1662 168.497 11.8966C167.847 11.6271 167.131 11.5566 166.44 11.6941C165.749 11.8315 165.114 12.1708 164.616 12.6689C164.118 13.167 163.779 13.8017 163.642 14.4926C163.504 15.1835 163.575 15.8997 163.844 16.5506C164.114 17.2014 164.57 17.7578 165.156 18.1492ZM165.476 12.7062C165.967 12.378 166.544 12.2027 167.134 12.2025C167.926 12.2028 168.685 12.5173 169.244 13.0769C169.804 13.6365 170.119 14.3955 170.12 15.1871C170.12 15.7775 169.945 16.3547 169.617 16.8456C169.289 17.3366 168.823 17.7193 168.278 17.9454C167.733 18.1714 167.133 18.2307 166.554 18.1157C165.975 18.0007 165.443 17.7165 165.025 17.2992C164.608 16.8818 164.324 16.35 164.208 15.771C164.093 15.192 164.152 14.5918 164.378 14.0462C164.603 13.5007 164.986 13.0344 165.476 12.7062Z" fill="#6E6E81"/>
</svg>
