<svg width="132" height="44" viewBox="0 0 132 44" fill="none" xmlns="http://www.w3.org/2000/svg">
<path fill-rule="evenodd" clip-rule="evenodd" d="M105.189 20.6197L105.21 20.5319C105.247 20.381 105.287 20.2198 105.341 20.0738C105.56 19.3315 106.04 18.6983 106.673 18.2398C106.979 18.0215 107.328 17.8468 107.678 17.7595C108.071 17.6503 108.464 17.5848 108.878 17.5848H109.359C109.643 17.6067 109.926 17.6722 110.21 17.7813C110.276 17.8032 110.341 17.8305 110.407 17.8577C110.472 17.885 110.538 17.9123 110.603 17.9342C110.734 17.9997 110.865 18.0652 110.996 18.1525L111.062 18.218L115.232 16.4277V16.384C115.207 16.3511 115.186 16.3183 115.165 16.2866L115.165 16.2865C115.13 16.234 115.098 16.1847 115.057 16.1438C113.922 14.7465 112.175 13.9605 110.385 14.0478C108.202 14.026 106.193 15.1832 105.101 17.0608V8H101.215V22.4443L101.193 22.4536V31.2525H101.215H105.058V21.755C105.058 21.4309 105.079 21.0854 105.143 20.7609L105.167 20.7507L105.189 20.6197ZM76.4559 8.19649H80.6043V11.8645H76.4559V8.19649ZM44.2737 8.26203H40.1254V11.93H44.2737V8.26203ZM12.3752 22.2135H18.0737V26.3836C16.5017 27.4971 14.624 28.0866 12.7027 28.0648C8.1395 28.0648 5.1265 24.7025 5.1265 20.0956V20.0301C5.1265 15.7726 8.24867 12.1701 12.3533 12.1701C14.6895 12.1046 16.9383 12.9561 18.6195 14.55L21.0867 11.5806C18.7942 9.63747 16.4143 8.5458 12.5062 8.5458C6.24 8.4803 1.08733 13.502 1 19.7681V20.0738V20.1393C1 26.6456 5.585 31.6018 12.5498 31.6018C15.9777 31.6018 19.2745 30.3573 21.8508 28.1085V18.7638H12.3752V22.2135ZM30.7369 14.2225C28.5318 14.1788 26.3266 14.6591 24.3398 15.6198L25.4096 18.7201C26.9161 18.0433 28.5536 17.6721 30.2129 17.6721C32.8984 17.6721 34.3613 18.9385 34.3613 21.2746V21.5803C32.8548 21.1 31.2828 20.8598 29.7108 20.8816C25.8026 20.8816 22.8988 22.672 22.8988 26.3836V26.4491C22.8988 29.8333 25.6934 31.6455 28.8811 31.6455C30.9771 31.711 32.9858 30.8376 34.3394 29.222V31.318H38.1603V21.3183C38.1384 16.8206 35.7149 14.2225 30.7369 14.2225ZM34.4049 25.2046C34.4049 27.3006 32.4836 28.7416 29.9509 28.7416C28.1388 28.7416 26.6978 27.8465 26.6978 26.2526V26.1871C26.6978 24.5715 28.1388 23.5671 30.5404 23.5671C31.8504 23.5671 33.1604 23.8073 34.4049 24.2658V25.2046ZM40.2999 14.4845H44.1426V31.2962H40.2999V14.4845ZM54.1205 17.6504C51.8716 17.6504 50.3215 19.2005 50.3215 21.8205V31.318H46.4788V14.5064H50.3215V17.1264C51.435 15.2705 53.4218 14.1352 55.5833 14.157C59.3605 14.157 61.5656 16.7115 61.5656 20.6197V31.318H57.723V21.755C57.723 19.1569 56.3693 17.6504 54.1205 17.6504ZM69.3601 28.5888C67.3514 28.5015 65.4082 27.7591 63.8581 26.4928L62.1333 29.1128C64.1856 30.7285 66.6964 31.6018 69.2946 31.6455C72.7879 31.6455 75.5608 29.8988 75.5608 26.3618V26.2963C75.5608 23.2615 72.7661 22.148 70.3426 21.4275L70.0632 21.3376C68.1488 20.7227 66.4999 20.1931 66.4999 19.0476V18.9821C66.4999 17.9996 67.3514 17.2791 68.8579 17.2791C70.5609 17.3883 72.1766 17.9341 73.5957 18.873L75.1241 16.1438C73.2901 14.943 71.1504 14.2661 68.9453 14.2225C65.6048 14.2225 62.9629 16.1656 62.9629 19.3533V19.4188C62.9629 22.6283 65.7576 23.6545 68.2247 24.3531C68.3665 24.3967 68.5071 24.4395 68.646 24.4817C70.4549 25.0312 71.9801 25.4946 71.9801 26.7111V26.7766C71.9801 27.8901 71.0194 28.5888 69.3601 28.5888ZM76.6087 14.4845V31.318H78.1371H80.4732V30.3792V14.4845H76.6087ZM89.4032 14.0915C91.7176 14.0479 93.9009 15.1177 95.2982 16.9517H95.3201V14.419H99.1628V23.327L99.1408 23.3367V27.8247C99.1626 29.0255 99.0098 30.2263 98.6605 31.3617C98.3548 32.4097 97.7871 33.3703 97.023 34.1563C95.4728 35.6847 93.1366 36.427 90.1018 36.427C87.46 36.4488 84.8618 35.7502 82.5911 34.4183L84.0321 31.5145C85.8006 32.6935 87.8966 33.3048 90.0145 33.3048C92.1105 33.3048 93.617 32.6498 94.4903 31.3617C95.1016 30.401 95.3855 29.2875 95.3418 28.1522V26.8422C94.01 28.8072 91.783 29.9643 89.4031 29.9425C88.1805 29.9425 86.9578 29.6368 85.8443 29.0692L91.8266 26.4928C92.0668 26.4273 92.3288 26.34 92.569 26.2308C92.7873 26.1217 92.9838 26.0125 93.1803 25.8815L93.5625 25.7178L93.5627 25.7176C93.6008 25.6849 93.639 25.6522 93.6826 25.6195L93.9664 25.3794L93.9666 25.3792C94.1412 25.2046 94.3158 25.03 94.4686 24.8335C94.5559 24.7462 94.6214 24.637 94.6869 24.5279C94.9271 24.1567 95.1236 23.7419 95.2327 23.3052C95.3201 22.9122 95.3856 22.5192 95.3856 22.1262V22.0607C95.3856 21.624 95.3201 21.1655 95.2109 20.7507C95.1454 20.5542 95.0799 20.3577 94.9926 20.1612C94.9271 20.0084 94.8616 19.8774 94.7742 19.7464C94.5559 19.3315 94.2503 18.9822 93.9228 18.6765C93.7262 18.5237 93.5297 18.3709 93.3332 18.2399L93.0494 18.0652C92.2634 17.6067 91.3682 17.3665 90.4512 17.3665C89.5124 17.3447 88.5736 17.5849 87.7657 18.0652C87.2636 18.3927 86.8269 18.8075 86.4776 19.2879C86.3029 19.528 86.1501 19.79 86.0409 20.0739C85.9536 20.2704 85.8881 20.4669 85.8226 20.6852C85.8164 20.71 85.8084 20.7366 85.8002 20.7639L85.7997 20.7656L85.7996 20.7658L85.7995 20.7661L85.7995 20.7662C85.779 20.8344 85.7571 20.9072 85.7571 20.969C85.6916 21.2965 85.6697 21.624 85.6697 21.9515V22.0389C85.6697 22.3009 85.6916 22.5847 85.7353 22.8467V22.9777C85.8008 23.3707 85.9099 23.7419 86.0846 24.0912C86.1173 24.1458 86.1446 24.2004 86.1719 24.2549C86.1992 24.3095 86.2265 24.3641 86.2592 24.4187C86.4557 24.7462 86.6959 25.0519 86.9579 25.3357C87.6129 25.9907 88.4644 26.4274 89.3814 26.5802C89.5997 26.6239 89.8181 26.6457 90.0364 26.6675H90.3857C90.6074 26.6675 90.8104 26.6489 91.0291 26.6289L91.0844 26.6239C91.3246 26.5802 91.5647 26.5365 91.7831 26.471L85.8007 29.0474L85.6042 28.9382C85.3204 28.7854 85.0584 28.6107 84.7964 28.436C82.8096 26.9514 81.6524 24.5497 81.7397 22.0607V21.9952C81.7397 21.5585 81.7616 21.1219 81.8271 20.6852C82.3074 16.8862 85.5606 14.026 89.4032 14.0915ZM118.114 9.81213H121.957V13.4607L123.834 12.6723L132 9.26634V9.65933L131.978 13.4365L121.957 17.6067V25.9688C121.957 27.4535 122.743 28.0648 124.053 28.0648C124.882 28.0867 125.69 27.8902 126.432 27.4972V30.6412C125.887 30.9687 125.319 31.187 124.729 31.3398C124.162 31.4708 123.55 31.5363 122.961 31.5363C122.371 31.5363 121.804 31.4708 121.236 31.3398C119.337 30.8813 118.114 29.484 118.114 26.602V15.0958V15.074V14.8556V9.81213ZM112.372 20.707C112.263 19.7464 111.782 18.8512 111.018 18.2617L115.188 16.4714C115.952 17.694 116.345 19.135 116.302 20.576V31.2962H112.459V21.7332C112.459 21.3839 112.415 21.0345 112.372 20.707Z" fill="#6E6E81"/>
</svg>
