<svg width="112" height="44" viewBox="0 0 112 44" fill="none" xmlns="http://www.w3.org/2000/svg">
<path fill-rule="evenodd" clip-rule="evenodd" d="M94.8893 12.5745V16.2995C96.1214 16.4865 97.2944 16.9528 98.3184 17.6629C99.3423 18.3729 100.19 19.3078 100.797 20.396C101.403 21.4841 101.753 22.6966 101.818 23.9406C101.884 25.1846 101.663 26.427 101.174 27.5727C100.685 28.7184 99.9399 29.737 98.9961 30.5505C98.0522 31.3639 96.9347 31.9506 95.729 32.2656C94.5232 32.5806 93.2614 32.6156 92.04 32.3679C90.8187 32.1201 89.6703 31.5963 88.6828 30.8364L85.6546 33.8643C85.7339 34.1116 85.7759 34.3693 85.7793 34.629C85.7789 35.1537 85.6228 35.6666 85.3309 36.1027C85.039 36.5389 84.6243 36.8787 84.1392 37.0793C83.6541 37.28 83.1204 37.3323 82.6055 37.2299C82.0906 37.1274 81.6177 36.8747 81.2465 36.5036C80.8753 36.1325 80.6224 35.6598 80.5199 35.1452C80.4174 34.6305 80.4698 34.097 80.6705 33.6122C80.8712 33.1273 81.2112 32.7127 81.6476 32.4209C82.0839 32.1291 82.597 31.9732 83.1219 31.9728C83.3817 31.9763 83.6395 32.0183 83.8869 32.0974L86.9479 29.0367C86.007 27.6965 85.4919 26.104 85.4697 24.4669C85.4474 22.8298 85.9191 21.224 86.8232 19.8588L76.7591 12.0306C76.2753 12.3117 75.7263 12.461 75.1668 12.4636C74.5272 12.4628 73.9023 12.2724 73.371 11.9165C72.8397 11.5606 72.426 11.0552 72.1821 10.4642C71.9382 9.8732 71.8751 9.2232 72.0009 8.59639C72.1266 7.96959 72.4355 7.39415 72.8885 6.94284C73.3415 6.49154 73.9182 6.18466 74.5457 6.06102C75.1731 5.93738 75.8232 6.00253 76.4137 6.24824C77.0041 6.49394 77.5084 6.90916 77.8627 7.44137C78.217 7.97357 78.4054 8.59887 78.4042 9.23815C78.4 9.50958 78.3619 9.77995 78.289 10.0429L88.5096 17.9999C89.6252 17.1028 90.9582 16.5162 92.3736 16.2995V12.5745C91.8811 12.3445 91.4641 11.9793 91.1712 11.5216C90.8783 11.0639 90.7214 10.5324 90.7189 9.98907V9.90352C90.7189 9.14275 91.0213 8.41313 91.5594 7.87519C92.0976 7.33724 92.8275 7.03502 93.5886 7.03502H93.6742C95.2591 7.03502 96.544 8.3193 96.544 9.90352V9.98907C96.5415 10.5324 96.3846 11.0639 96.0917 11.5216C95.7988 11.9793 95.3818 12.3445 94.8893 12.5745ZM91.9958 28.2659C92.5174 28.4694 93.0744 28.5662 93.6341 28.5509L93.6383 28.5487C94.723 28.5097 95.7501 28.0514 96.5034 27.2704C97.2568 26.4894 97.6774 25.4466 97.6769 24.3617C97.6764 23.2768 97.2546 22.2345 96.5005 21.4543C95.7464 20.674 94.7188 20.2167 93.6341 20.1788C93.0744 20.1634 92.5174 20.2603 91.9958 20.4637C91.4743 20.6672 90.9988 20.973 90.5975 21.3633C90.1962 21.7535 89.8772 22.2202 89.6594 22.7357C89.4416 23.2512 89.3294 23.8052 89.3294 24.3648C89.3294 24.9244 89.4416 25.4784 89.6594 25.9939C89.8772 26.5095 90.1962 26.9761 90.5975 27.3664C90.9988 27.7566 91.4743 28.0625 91.9958 28.2659ZM12.1298 20.2063V11.2555H16.034V32.6224H12.1288V23.962H3.90415V32.6224H0V11.2555H3.90309V20.2063H12.1298ZM27.5842 27.9996C28.1901 27.394 28.5304 26.5727 28.5304 25.7162V16.5637H32.2201V25.7162C32.2201 27.5526 31.4903 29.3138 30.1912 30.6123C28.8921 31.9108 27.1302 32.6403 25.293 32.6403C23.4558 32.6403 21.6939 31.9108 20.3948 30.6123C19.0957 29.3138 18.3659 27.5526 18.3659 25.7162V16.5637H22.0693V25.7162C22.0693 26.5727 22.4096 27.394 23.0155 27.9996C23.6213 28.6052 24.443 28.9454 25.2998 28.9454C26.1566 28.9454 26.9784 28.6052 27.5842 27.9996ZM58.5728 15.0354C57.213 15.0354 55.9715 15.63 55.9715 17.5068H55.9651C55.9651 18.8893 57.3597 19.3295 59.0415 19.8604C61.5956 20.6666 64.8121 21.6818 64.8121 26.5242C64.8121 30.2461 61.7416 32.6266 57.9241 32.6266C55.3808 32.6266 53.257 31.5536 51.5348 29.4413L54.227 26.6435C54.3187 26.7467 54.4079 26.8494 54.496 26.9508C55.3746 27.9619 56.1426 28.8456 58.1333 28.8456C59.5217 28.8456 60.7346 27.743 60.7346 26.4946C60.7346 24.7617 59.1145 24.1909 57.2609 23.5379C54.7834 22.665 51.8888 21.6453 51.8888 17.5068C51.8888 13.6075 54.7944 11.2555 58.8127 11.2555C60.8234 11.2555 63.2789 12.3866 64.4898 14.0236L62.0649 16.8816C61.1171 15.8698 59.6696 15.0354 58.5728 15.0354ZM107.887 26.8136C107.887 28.2626 108.509 29.2089 110.697 29.2089V29.2057C111.112 29.2057 111.587 29.1772 112 29.1487L111.084 32.5199C110.596 32.6065 110.099 32.6467 109.603 32.6382C106.439 32.6382 104.131 30.9537 104.131 27.611V14.5422L107.887 12.8576V17.1467H111.289V20.3975H107.887V26.8136ZM38.2744 18.4161C39.5127 17.2026 40.7934 16.6703 42.6276 16.6703V16.6735C46.7695 16.6735 50.3313 20.1334 50.3313 24.658C50.3313 29.2395 46.461 32.6425 42.0613 32.6425C38.0948 32.6425 34.5657 29.2987 34.5657 24.4193V11.3833H38.2744V18.4161ZM40.9937 28.5908C41.5043 28.8023 42.0516 28.9111 42.6044 28.9111C43.7207 28.9111 44.7912 28.4678 45.5806 27.6788C46.3699 26.8898 46.8134 25.8197 46.8134 24.7039C46.8134 23.5881 46.3699 22.518 45.5806 21.729C44.7912 20.94 43.7207 20.4968 42.6044 20.4968C42.0516 20.4968 41.5043 20.6056 40.9937 20.817C40.483 21.0284 40.019 21.3383 39.6282 21.729C39.2373 22.1197 38.9273 22.5835 38.7158 23.0939C38.5043 23.6043 38.3954 24.1514 38.3954 24.7039C38.3954 25.2564 38.5043 25.8035 38.7158 26.3139C38.9273 26.8244 39.2373 27.2882 39.6282 27.6788C40.019 28.0695 40.483 28.3794 40.9937 28.5908ZM74.6353 16.4792C79.0435 16.4792 82.9053 19.8736 82.9053 24.4636H82.9043C82.9043 28.9892 79.3414 32.4492 75.1995 32.4492C73.3674 32.4492 72.0847 31.9148 70.8484 30.7034V37.7458H67.1398V24.7023C67.1398 19.8219 70.6699 16.4792 74.6353 16.4792ZM78.1604 27.3921C78.9498 26.6031 79.3932 25.533 79.3932 24.4172C79.3932 23.3014 78.9498 22.2313 78.1604 21.4423C77.3711 20.6533 76.3005 20.21 75.1842 20.21C74.0679 20.21 72.9974 20.6533 72.208 21.4423C71.4187 22.2313 70.9752 23.3014 70.9752 24.4172C70.9752 25.533 71.4187 26.6031 72.208 27.3921C72.9974 28.1811 74.0679 28.6243 75.1842 28.6243C76.3005 28.6243 77.3711 28.1811 78.1604 27.3921Z" fill="#6E6E81"/>
</svg>
