<svg width="108" height="44" viewBox="0 0 108 44" fill="none" xmlns="http://www.w3.org/2000/svg">
<path fill-rule="evenodd" clip-rule="evenodd" d="M32.7372 4H3.26283C1.46224 4 0 5.46224 0 7.26283V36.7372C0 38.5407 1.46224 40 3.26283 40H32.7372C34.5407 40 36 38.5378 36 36.7372V23.2611L39.5894 32.0621H42.6934L48.8454 16.913H45.2295L41.1546 27.9607L37.1121 16.913H36V7.26283C36 5.46224 34.5407 4 32.7372 4ZM14.2311 13.1588C14.2311 14.3886 13.2278 15.3272 12.0304 15.3272C10.8359 15.3272 9.83261 14.3886 9.83261 13.1588C9.83261 11.9319 10.8329 10.9934 12.0304 10.9934C13.2278 10.9934 14.2311 11.929 14.2311 13.1588ZM7.27887 28.5581C7.27887 28.0755 7.3436 27.4812 7.47306 26.9311L9.12065 20.1818H6.56688L7.3436 17.3191H13.4838L11.0566 26.9428C10.8948 27.5577 10.83 28.0667 10.83 28.4227C10.83 29.0406 11.1331 29.22 11.6068 29.326C11.8951 29.3907 14.1958 29.3436 15.4463 26.5633L17.0379 20.1847H14.4518L15.2285 17.322H20.7598L20.0478 20.5731C21.0187 18.7607 22.9575 17.0396 24.867 17.0396C26.9029 17.0396 28.5858 18.493 28.5858 21.2733C28.5858 21.9853 28.4887 22.7591 28.2298 23.6329L27.1942 27.3518C27.0971 27.7401 27.0324 28.0638 27.0324 28.355C27.0324 29.0023 27.2913 29.326 27.7768 29.326C28.2622 29.326 28.8771 28.97 29.5891 26.9987L31.0131 27.5489C30.1717 30.491 28.6535 31.7209 26.7441 31.7209C24.5139 31.7209 23.4459 30.3969 23.4459 28.5845C23.4459 28.0667 23.5107 27.5165 23.6725 26.9664L24.7405 23.1504C24.8699 22.7297 24.9023 22.3413 24.9023 21.9853C24.9023 20.7585 24.1579 20.0141 22.9605 20.0141C21.4423 20.0141 20.4391 21.1027 19.9212 23.2063L17.85 31.509H14.2282L14.8784 28.8993C13.8163 30.6499 12.3364 31.7326 10.5123 31.7326C8.31451 31.7326 7.27887 30.4675 7.27887 28.5581ZM53.9971 31.9473H50.5518V16.913H53.9971V31.9473ZM62.8374 22.9682C62.937 23.0002 63.0374 23.0324 63.1383 23.065C65.3302 23.7476 67.8075 24.745 67.8075 27.4488V27.5018C67.8075 30.6646 65.3567 32.2298 62.2262 32.2298C60.105 32.2298 57.7571 31.4678 55.883 30.0055C57.257 28.052 58.8663 28.6021 59.1752 28.7316C60.2491 29.2376 61.3259 29.4965 62.3116 29.4965C63.7944 29.4965 64.6476 28.8699 64.6476 27.8725V27.8166C64.6476 26.7287 63.2644 26.3095 61.6484 25.8198C61.5293 25.7837 61.4089 25.7472 61.2877 25.71C59.0664 25.0833 56.5891 24.1713 56.5891 21.2968V21.2409C56.5891 18.3929 58.9516 16.6571 61.9408 16.6571C63.8209 16.6571 65.8715 17.3131 67.4662 18.3664C66.2275 20.2906 64.7565 20.0611 64.2122 19.8875C64.1729 19.8739 64.1347 19.8592 64.0968 19.8447C64.0694 19.8342 64.0422 19.8238 64.0151 19.814C64.0033 19.8081 63.9945 19.8051 63.9945 19.8051V19.8081C63.2383 19.5433 62.5087 19.3932 61.8555 19.3932C60.5169 19.3932 59.749 20.0199 59.749 20.9026V20.9585C59.749 21.9765 61.1927 22.4401 62.8374 22.9682ZM75.7777 24.489C75.7777 20.1611 79.1965 16.6011 83.8098 16.6011C88.423 16.6011 91.8124 20.1023 91.8094 24.4331C91.8094 28.7316 88.3936 32.2916 83.7509 32.2916C79.1671 32.2916 75.7777 28.7875 75.7777 24.489ZM79.2259 24.4302C79.2259 27.1075 81.1324 29.2994 83.8098 29.2994C86.6018 29.2994 88.3671 27.1369 88.3671 24.4861C88.3671 21.8087 86.4577 19.6168 83.7539 19.6168C80.9912 19.6168 79.2259 21.7823 79.2259 24.4302ZM97.3348 19.2491C98.3027 17.8251 99.6973 16.6011 102.033 16.6011C105.423 16.6011 107.388 18.8784 107.388 22.3795V31.9473H103.943V23.4034C103.943 21.0703 102.775 19.7316 100.724 19.7316C98.7293 19.7316 97.3348 21.1262 97.3348 23.4622V31.9503H93.8895V16.916H97.3348V19.2491ZM73.5299 31.9473H70.0847V16.913H73.5299V31.9473Z" fill="#6E6E81"/>
</svg>
