<svg width="144" height="44" viewBox="0 0 144 44" fill="none" xmlns="http://www.w3.org/2000/svg">
<path fill-rule="evenodd" clip-rule="evenodd" d="M37.0524 33.4545L45.2539 25.2539C46.3145 24.1935 46.3145 22.4497 45.2539 21.3893C44.1934 20.3288 42.4494 20.3288 41.3889 21.3893L35.1199 27.6575L33.1874 25.7253L39.4565 19.4569C40.517 18.3965 40.517 16.6527 39.4565 15.5923C38.3959 14.5319 36.6519 14.5319 35.5914 15.5923L29.3223 21.8606L27.3897 19.9282L33.6587 13.66C34.7192 12.5996 34.7192 10.8557 33.6587 9.79532C32.5982 8.73489 30.8542 8.73489 29.7936 9.79532L23.5246 16.0636L17.2557 9.79532C16.1951 8.73489 14.4511 8.73489 13.3906 9.79532C12.3301 10.8557 12.3301 12.5996 13.3906 13.66L19.6596 19.9282L17.7271 21.8605L11.4582 15.5923C10.3977 14.5319 8.65367 14.5319 7.59313 15.5923C6.53259 16.6527 6.53259 18.3965 7.59313 19.4569L13.87 25.7331L11.953 27.6576L5.66048 21.3894C4.59994 20.329 2.85594 20.329 1.7954 21.3894C0.734865 22.4498 0.734865 24.1936 1.7954 25.254L10.0205 33.4546C11.081 34.515 12.825 34.515 13.8856 33.4546L17.739 29.6016L21.5923 33.4545C22.6528 34.5149 24.3968 34.5149 25.4573 33.4545L29.3223 29.5899L33.1873 33.4545C34.2479 34.5149 35.9919 34.5149 37.0524 33.4545ZM21.6038 25.7135L23.5246 23.7929L25.4573 25.7253L23.5248 27.6575L21.604 25.737L21.6157 25.7253L21.6038 25.7135ZM56.8257 11.6805H60.1723V28.4588H69.128V31.428H56.8257V11.6805ZM80.5582 19.4805C79.8041 18.4437 78.4372 17.6189 76.3868 17.6189C72.7103 17.6189 70.2121 20.5645 70.2121 24.6648C70.2121 28.7415 72.7103 31.7107 76.3868 31.7107C78.4372 31.7107 79.8041 30.8624 80.5582 29.8491L80.7232 31.428H83.622V17.9017H80.7232L80.5582 19.4805ZM73.488 24.6648C73.488 22.1198 74.9963 20.4703 77.0938 20.4703C78.6964 20.4703 79.6627 21.3186 80.3933 22.4968V26.8564C79.6627 28.011 78.6964 28.8594 77.0938 28.8594C74.9963 28.8594 73.488 27.2098 73.488 24.6648ZM88.5005 13.3536H91.7293V17.9017H95.8064V20.6352H91.7293V26.6207C91.7293 27.9875 92.5777 28.7887 93.8503 28.7887C94.7223 28.7887 95.3115 28.6002 95.7122 28.3645L96.5606 30.886C95.8771 31.3101 94.8873 31.6872 93.544 31.6872C90.4566 31.6872 88.5005 29.9198 88.5005 26.6443V20.6352H85.9552V17.9017H88.5005V13.3536ZM99.6008 13.3536H102.83V17.9017H106.907V20.6352H102.83V26.6207C102.83 27.9875 103.678 28.7887 104.951 28.7887C105.823 28.7887 106.412 28.6002 106.812 28.3645L107.661 30.886C106.977 31.3101 105.988 31.6872 104.644 31.6872C101.557 31.6872 99.6008 29.9198 99.6008 26.6443V20.6352H97.0555V17.9017H99.6008V13.3536ZM109.829 17.8781H113.058V31.4044H109.829V17.8781ZM109.476 13.5422C109.476 12.3875 110.324 11.5627 111.455 11.5627C112.61 11.5627 113.459 12.3875 113.459 13.5422C113.459 14.6968 112.61 15.5216 111.455 15.5216C110.324 15.5216 109.476 14.6968 109.476 13.5422ZM115.862 24.6648C115.862 20.5645 118.62 17.6189 122.791 17.6189C125.266 17.6189 127.057 18.7264 128.283 20.6352L125.949 22.4026C125.337 21.3186 124.347 20.4703 122.838 20.4703C120.435 20.4703 119.162 22.3083 119.162 24.6884C119.162 27.0449 120.482 28.9065 122.862 28.9065C124.323 28.9065 125.384 28.0346 126.02 26.9506L128.33 28.7416C127.104 30.6032 125.266 31.7107 122.815 31.7107C118.667 31.7107 115.862 28.718 115.862 24.6648ZM142.399 24.5234C142.399 20.7295 140.373 17.6189 136.201 17.6189C132.313 17.6189 129.579 20.5881 129.555 24.6884C129.555 28.7416 132.242 31.6872 136.437 31.6872C138.935 31.6872 140.703 30.8388 142.046 29.2364L139.807 27.4219C139.194 28.2703 138.039 28.9772 136.46 28.9772C134.198 28.9772 132.902 27.799 132.831 25.6545H142.399V24.5234ZM132.855 23.3216C132.949 21.46 134.245 20.1875 136.154 20.1875C138.087 20.1875 139.171 21.4836 139.241 23.3216H132.855Z" fill="#6E6E81"/>
</svg>
