<svg width="112" height="44" viewBox="0 0 112 44" fill="none" xmlns="http://www.w3.org/2000/svg">
<path fill-rule="evenodd" clip-rule="evenodd" d="M20.8888 23.7522C20.8888 24.5612 21.5102 25.2142 22.3493 25.2142V25.214C23.2195 25.214 23.8097 24.561 23.8097 23.7518V17.3132C23.8097 13.6739 22.0073 11.0918 18.247 11.0918C16.0407 11.0918 14.2694 11.994 13.0576 13.8603C12.2185 12.2116 10.5403 11.0918 8.30286 11.0918C6.46931 11.0918 4.76023 12.0561 3.92114 13.7048V12.7094C3.92114 11.9006 3.45503 11.2164 2.46057 11.2164C1.55946 11.2164 1 11.8385 1 12.7094V23.7522C1 24.5612 1.6217 25.2142 2.46079 25.2142C3.33099 25.2142 3.92136 24.5612 3.92136 23.7522V17.5622C3.92136 15.509 5.16433 13.7359 7.52601 13.7359C9.82588 13.7359 10.9446 15.3846 10.9446 17.5308V23.7522C10.9446 24.5612 11.535 25.2142 12.4052 25.2142C13.3063 25.2142 13.8657 24.5612 13.8657 23.7522V17.5622C13.8657 15.509 15.2641 13.7359 17.5637 13.7359C19.8634 13.7359 20.8888 15.3846 20.8888 17.5308V23.7522ZM29.6211 7.39017C29.6211 6.45703 28.8442 5.6794 27.912 5.6794C26.9796 5.6794 26.2027 6.45703 26.2027 7.39017C26.2027 8.32332 26.9798 9.10094 27.912 9.10094C28.8442 9.10094 29.6211 8.32332 29.6211 7.39017ZM26.4514 23.7522C26.4514 24.5614 27.0418 25.2145 27.912 25.2145V25.2142C28.782 25.2142 29.3721 24.5612 29.3726 23.7522V12.6782C29.3726 11.8694 28.7511 11.2162 27.912 11.2162C27.0729 11.2162 26.4514 11.8694 26.4514 12.6782V23.7522ZM41.305 11.6518L37.607 16.2555L33.909 11.6521C33.6603 11.3722 33.3496 11.2164 32.9457 11.2164C32.1377 11.2164 31.6094 11.7453 31.6094 12.4918C31.6094 12.7717 31.7025 13.0513 31.9512 13.3317L36.0222 18.1841L31.889 23.0676C31.6716 23.3166 31.5471 23.5653 31.5471 23.9387C31.5471 24.6538 32.1686 25.214 32.8523 25.214C33.2875 25.214 33.6292 25.0579 33.8779 24.747L37.607 20.1127L41.3361 24.747C41.5846 25.0585 41.9265 25.214 42.3615 25.214C43.0452 25.214 43.6667 24.6547 43.6667 23.9387C43.6667 23.5653 43.5424 23.3166 43.3251 23.0676L39.1918 18.1843L43.2628 13.3317C43.5113 13.0516 43.6047 12.7717 43.6047 12.4918C43.6047 11.7451 43.0763 11.2162 42.2686 11.2162C41.8645 11.2162 41.5535 11.3717 41.305 11.6518ZM48.7632 22.664C49.7577 24.2506 51.4668 25.3388 53.5488 25.3388C57.1226 25.3388 60.0437 22.508 60.0437 18.2156C60.0437 14.0781 57.1226 11.0922 53.5488 11.0922C51.4668 11.0922 49.6023 12.15 48.6701 13.7675V12.7094C48.6701 11.9006 48.1418 11.2162 47.2404 11.2162C46.3393 11.2162 45.8421 11.8694 45.8421 12.6782V29.5696C45.8421 30.3783 46.4325 31.0311 47.3027 31.0311C48.1729 31.0311 48.7632 30.3785 48.7632 29.5696V22.664ZM48.7635 18.2154C48.7635 15.7266 50.4414 13.5183 52.9587 13.5183C55.4755 13.5183 57.1226 15.416 57.1226 18.2154C57.1226 21.0153 55.476 22.9125 52.9589 22.9125C50.4416 22.9125 48.7635 20.7045 48.7635 18.2154ZM73.9969 25.2142C74.8982 25.2142 75.4574 24.5612 75.4574 23.7522H75.4583V18.2152C75.4583 14.0158 72.8168 11.092 68.3417 11.092C63.9604 11.092 61.1631 14.3271 61.1631 18.2152C61.1631 22.1663 63.6797 25.3388 68.0312 25.3388C70.0506 25.3388 71.6976 24.3743 72.5678 23.0678V23.7522C72.5678 24.5612 73.1267 25.2142 73.9969 25.2142ZM64.0834 18.2152C64.0834 15.665 65.8238 13.5804 68.3099 13.5804C70.7961 13.5804 72.5361 15.3535 72.5361 18.2152C72.5361 20.6415 70.889 22.8502 68.3099 22.8502C65.544 22.8502 64.0834 20.8905 64.0834 18.2152ZM90.7776 17.5936C90.7776 13.9542 88.012 11.0922 84.2522 11.0922C80.4915 11.0922 77.7569 13.954 77.7569 17.5933V23.7524C77.7566 23.9445 77.7942 24.1347 77.8675 24.3122C77.9408 24.4897 78.0484 24.651 78.1841 24.7868C78.3198 24.9226 78.4809 25.0303 78.6582 25.1037C78.8355 25.1771 79.0256 25.2147 79.2175 25.2145C79.4093 25.2147 79.5994 25.1771 79.7767 25.1037C79.9541 25.0304 80.1152 24.9227 80.2509 24.7869C80.3865 24.6511 80.4941 24.4898 80.5674 24.3123C80.6407 24.1348 80.6783 23.9445 80.678 23.7524V17.2511C80.678 15.291 82.201 13.7673 84.2522 13.7673C86.3027 13.7673 87.8564 15.2914 87.8564 17.2511V23.7524C87.8562 23.9445 87.8938 24.1347 87.9671 24.3122C88.0404 24.4897 88.148 24.651 88.2836 24.7868C88.4193 24.9226 88.5804 25.0303 88.7578 25.1037C88.9351 25.1771 89.1251 25.2147 89.317 25.2145C89.5089 25.2147 89.6989 25.1771 89.8763 25.1037C90.0536 25.0304 90.2147 24.9227 90.3504 24.7869C90.4861 24.6511 90.5937 24.4898 90.667 24.3123C90.7403 24.1348 90.7778 23.9445 90.7776 23.7524V17.5936ZM104.855 19.2418C105.694 19.2418 105.974 18.7442 105.974 18.2466C105.974 14.2648 103.426 11.0923 99.5092 11.0912C95.5009 11.0912 92.5484 14.1394 92.5484 18.2144C92.5484 22.1027 95.0037 25.3382 99.6344 25.3382C101.871 25.3382 103.985 24.4358 105.166 23.067C105.383 22.8182 105.539 22.5381 105.539 22.2275C105.539 21.4812 104.979 21.0142 104.327 21.0142C103.954 21.0142 103.612 21.2325 103.363 21.4812C102.338 22.4453 101.375 23.0053 99.7584 23.0053C97.1793 23.0053 95.7187 21.3882 95.5636 19.2418H104.855ZM95.6256 16.8782C95.9052 14.949 97.3658 13.4253 99.5099 13.4253H99.5101C101.623 13.4253 103.022 15.0113 103.27 16.8782H95.6256ZM107.931 23.7522C107.931 24.5612 108.521 25.2142 109.392 25.2142C110.262 25.2142 110.852 24.5612 110.852 23.7522V5.46201C110.852 4.65282 110.262 4 109.392 4C108.522 4 107.931 4.65282 107.931 5.46201V23.7522ZM10.8036 35.2231C10.8036 37.8614 8.66702 40.0001 6.03136 40.0001C3.39569 40.0001 1.25906 37.8614 1.25906 35.2231C1.25906 32.5849 3.39569 30.4461 6.03136 30.4461C8.66702 30.4461 10.8036 32.5849 10.8036 35.2231ZM26.6341 35.2753C26.6341 37.1414 25.1229 38.6541 23.2587 38.6541C21.3945 38.6541 19.8832 37.1414 19.8832 35.2753C19.8832 33.4093 21.3945 31.8965 23.2587 31.8965C25.1229 31.8965 26.6341 33.4093 26.6341 35.2753ZM37.4592 36.8092C38.3056 36.8092 38.9917 36.1224 38.9917 35.2752C38.9917 34.428 38.3056 33.7412 37.4592 33.7412C36.6128 33.7412 35.9267 34.428 35.9267 35.2752C35.9267 36.1224 36.6128 36.8092 37.4592 36.8092Z" fill="#6E6E81"/>
</svg>
